<svg width="52" height="50" viewBox="0 0 52 50" fill="none" xmlns="http://www.w3.org/2000/svg">
<path d="M13.0001 45.8332C11.8084 45.8332 10.7879 45.4248 9.93858 44.6082C9.08925 43.7915 8.66531 42.811 8.66675 41.6665V16.6665C8.66675 15.5207 9.09142 14.5394 9.94075 13.7228C10.7901 12.9061 11.8099 12.4984 13.0001 12.4998H17.3334C17.3334 10.2082 18.182 8.24637 19.8793 6.61442C21.5765 4.98248 23.6168 4.1665 26.0001 4.1665C28.3834 4.1665 30.4237 4.98248 32.1209 6.61442C33.8181 8.24637 34.6668 10.2082 34.6668 12.4998H39.0001C40.1918 12.4998 41.2123 12.9082 42.0616 13.7248C42.9109 14.5415 43.3349 15.5221 43.3334 16.6665V41.6665C43.3334 42.8123 42.9088 43.7936 42.0594 44.6103C41.2101 45.4269 40.1903 45.8346 39.0001 45.8332H13.0001ZM13.0001 41.6665H39.0001V16.6665H34.6668V20.8332C34.6668 21.4235 34.4588 21.9186 34.0428 22.3186C33.6268 22.7186 33.1125 22.9179 32.5001 22.9165C31.8862 22.9165 31.3713 22.7165 30.9553 22.3165C30.5393 21.9165 30.332 21.4221 30.3334 20.8332V16.6665H21.6668V20.8332C21.6668 21.4235 21.4588 21.9186 21.0428 22.3186C20.6268 22.7186 20.1125 22.9179 19.5001 22.9165C18.8862 22.9165 18.3713 22.7165 17.9553 22.3165C17.5393 21.9165 17.332 21.4221 17.3334 20.8332V16.6665H13.0001V41.6665ZM21.6668 12.4998H30.3334C30.3334 11.354 29.9088 10.3728 29.0594 9.55609C28.2101 8.73942 27.1903 8.33178 26.0001 8.33317C24.8084 8.33317 23.7879 8.7415 22.9386 9.55817C22.0893 10.3748 21.6653 11.3554 21.6668 12.4998Z" fill="white"/>
</svg>
