<svg width="40" height="40" viewBox="0 0 40 40" fill="none" xmlns="http://www.w3.org/2000/svg">
<path d="M25.7499 27.5335L20.7333 22.5168C20.5499 22.3335 20.3333 22.3002 20.2166 22.3002C20.0999 22.3002 19.8833 22.3335 19.6999 22.5168L14.6666 27.5502C14.0999 28.1168 13.2166 29.0335 10.2666 29.0335L16.4499 35.2002C17.3874 36.1365 18.6583 36.6624 19.9833 36.6624C21.3083 36.6624 22.5791 36.1365 23.5166 35.2002L29.7166 29.0168C28.1999 29.0168 26.9333 28.7168 25.7499 27.5335ZM14.6666 12.4502L19.6999 17.4835C19.8333 17.6168 20.0333 17.7002 20.2166 17.7002C20.3999 17.7002 20.5999 17.6168 20.7333 17.4835L25.7166 12.5002C26.8999 11.2668 28.2499 10.9835 29.7666 10.9835L23.5666 4.80016C22.6291 3.86382 21.3583 3.33789 20.0333 3.33789C18.7083 3.33789 17.4374 3.86382 16.4999 4.80016L10.3166 10.9668C13.2499 10.9668 14.1499 11.9335 14.6666 12.4502Z" fill="url(#paint0_linear_1_40)"/>
<path d="M35.1832 16.4167L31.4332 12.65H29.3332C28.4332 12.65 27.5332 13.0167 26.9166 13.6667L21.9166 18.6667C21.4499 19.1334 20.8332 19.3667 20.2166 19.3667C19.5816 19.3578 18.9738 19.1075 18.5166 18.6667L13.4832 13.6167C12.8499 12.9834 11.9832 12.6167 11.0666 12.6167H8.61658L4.79991 16.45C3.86358 17.3875 3.33765 18.6584 3.33765 19.9834C3.33765 21.3084 3.86358 22.5792 4.79991 23.5167L8.61658 27.35H11.0832C11.9832 27.35 12.8499 26.9834 13.4999 26.35L18.5332 21.3167C18.9999 20.85 19.6166 20.6167 20.2332 20.6167C20.8499 20.6167 21.4666 20.85 21.9332 21.3167L26.9499 26.3334C27.5832 26.9667 28.4499 27.3334 29.3666 27.3334H31.4666L35.2166 23.5667C36.1569 22.6123 36.6811 21.3246 36.6749 19.9848C36.6687 18.6451 36.1324 17.3623 35.1832 16.4167Z" fill="url(#paint1_linear_1_40)"/>
<defs>
<linearGradient id="paint0_linear_1_40" x1="20.0166" y1="3.33789" x2="20.0166" y2="36.6624" gradientUnits="userSpaceOnUse">
<stop stop-color="#009FF9"/>
<stop offset="1" stop-color="#00A3FF" stop-opacity="0.4"/>
</linearGradient>
<linearGradient id="paint1_linear_1_40" x1="20.0063" y1="12.6167" x2="20.0063" y2="27.35" gradientUnits="userSpaceOnUse">
<stop stop-color="#009FF9"/>
<stop offset="1" stop-color="#00A3FF" stop-opacity="0.4"/>
</linearGradient>
</defs>
</svg>
