<svg width="37" height="37" viewBox="0 0 37 37" fill="none" xmlns="http://www.w3.org/2000/svg">
<g clip-path="url(#clip0_4_112)">
<path d="M0.789492 18.2785C0.788625 21.3873 1.60725 24.4227 3.16385 27.0982L0.640625 36.2395L10.0687 33.7866C12.6764 35.1952 15.5981 35.9332 18.5671 35.9334H18.5749C28.3763 35.9334 36.3549 28.0196 36.3591 18.2924C36.3609 13.579 34.5127 9.14671 31.1546 5.81212C27.7972 2.47782 23.3319 0.640579 18.5742 0.638428C8.77166 0.638428 0.793684 8.55184 0.789637 18.2785" fill="url(#paint0_linear_4_112)"/>
<path d="M0.154648 18.2728C0.153637 21.4934 1.0016 24.6374 2.6137 27.4087L0 36.8777L9.76612 34.3369C12.457 35.7926 15.4867 36.5602 18.5695 36.5613H18.5775C28.7305 36.5613 36.9957 28.3628 37 18.2875C37.0017 13.4046 35.087 8.81303 31.609 5.35898C28.1306 1.90536 23.5056 0.00200775 18.5775 0C8.4227 0 0.158695 8.19736 0.154648 18.2728ZM5.97059 26.9314L5.60593 26.357C4.07303 23.9386 3.26395 21.1438 3.26511 18.274C3.26843 9.89951 10.1371 3.0862 18.5833 3.0862C22.6735 3.08792 26.5174 4.67003 29.4086 7.54054C32.2997 10.4113 33.8906 14.2275 33.8895 18.2863C33.8858 26.6608 27.0169 33.475 18.5775 33.475H18.5714C15.8234 33.4735 13.1284 32.7413 10.778 31.3575L10.2186 31.0284L4.42323 32.536L5.97059 26.9313V26.9314Z" fill="url(#paint1_linear_4_112)"/>
<path d="M13.9731 10.6336C13.6282 9.87305 13.2653 9.8577 12.9374 9.84437C12.6688 9.83289 12.3618 9.83375 12.0551 9.83375C11.7482 9.83375 11.2494 9.94834 10.8278 10.4051C10.4058 10.8623 9.21655 11.9671 9.21655 14.2142C9.21655 16.4615 10.8661 18.6332 11.096 18.9382C11.3263 19.2427 14.2805 24.0016 18.9593 25.8324C22.8477 27.3538 23.639 27.0512 24.483 26.9749C25.327 26.8989 27.2065 25.8704 27.5899 24.8038C27.9737 23.7374 27.9737 22.8233 27.8586 22.6323C27.7436 22.442 27.4366 22.3277 26.9763 22.0994C26.5158 21.8709 24.2527 20.766 23.8308 20.6135C23.4088 20.4612 23.102 20.3852 22.795 20.8425C22.488 21.2992 21.6065 22.3277 21.3378 22.6323C21.0694 22.9376 20.8007 22.9756 20.3405 22.7472C19.8799 22.518 18.3975 22.0363 16.6387 20.4804C15.2702 19.2698 14.3464 17.7747 14.0779 17.3174C13.8093 16.8607 14.0491 16.6132 14.2799 16.3856C14.4867 16.181 14.7404 15.8523 14.9708 15.5857C15.2003 15.3189 15.2769 15.1286 15.4304 14.824C15.584 14.5191 15.5071 14.2524 15.3922 14.0239C15.2769 13.7955 14.3824 11.5366 13.9731 10.6336Z" fill="white"/>
</g>
<defs>
<linearGradient id="paint0_linear_4_112" x1="1786.56" y1="3560.74" x2="1786.56" y2="0.638428" gradientUnits="userSpaceOnUse">
<stop stop-color="#1FAF38"/>
<stop offset="1" stop-color="#60D669"/>
</linearGradient>
<linearGradient id="paint1_linear_4_112" x1="1850" y1="3687.77" x2="1850" y2="0" gradientUnits="userSpaceOnUse">
<stop stop-color="#F9F9F9"/>
<stop offset="1" stop-color="white"/>
</linearGradient>
<clipPath id="clip0_4_112">
<rect width="37" height="37" fill="white"/>
</clipPath>
</defs>
</svg>
