<svg width="68" height="32" viewBox="0 0 68 32" fill="none" xmlns="http://www.w3.org/2000/svg">
<path d="M31.9838 20.5818C31.8644 20.3891 31.7051 20.0811 31.6068 19.8531C31.0331 18.5178 31.0073 17.1356 31.4897 15.8097C32.0213 14.3546 33.0375 13.2427 34.3512 12.6738C36.0021 11.9615 37.8262 12.1002 39.4092 13.0429C40.4138 13.6212 41.1256 14.5145 41.6666 15.7792C41.7345 15.9414 41.7954 16.113 41.8562 16.2611L31.9838 20.5818ZM35.2808 14.8201C34.1077 15.3255 33.5035 16.4304 33.63 17.7233L38.5943 15.577C37.7396 14.5709 36.6296 14.2371 35.2808 14.8201ZM39.2125 19.4887C39.2102 19.4887 39.2102 19.4911 39.2102 19.4911L39.1071 19.4205C38.8097 19.9025 38.3484 20.295 37.7654 20.5489C36.6554 21.0332 35.6274 20.9086 34.8874 20.2574L34.8195 20.3609C34.8195 20.3609 34.8195 20.3585 34.8172 20.3585L33.5574 22.2509C33.8712 22.4695 34.206 22.6529 34.5573 22.801C35.9482 23.3816 37.372 23.3534 38.7746 22.7422C39.7885 22.3003 40.5847 21.6279 41.128 20.7746L39.2125 19.4887Z" fill="black"/>
<path d="M45.3038 9.89014V20.4075L46.9336 21.0705L46.0086 23.2379L44.2102 22.4856C43.8075 22.3093 43.5311 22.0413 43.3251 21.7381C43.126 21.4301 42.9785 21.0046 42.9785 20.4357V9.89014H45.3038Z" fill="black"/>
<path d="M49.5224 17.7315C49.5224 16.8358 49.9181 16.0318 50.541 15.4865L48.8691 13.6152C47.7357 14.6214 47.0215 16.0906 47.0215 17.7268C47.0191 19.3653 47.7334 20.8368 48.8644 21.843L50.534 19.9718C49.9134 19.424 49.5224 18.6248 49.5224 17.7315Z" fill="black"/>
<path d="M52.4957 20.7149C52.1679 20.7149 51.8494 20.6585 51.5544 20.5598L50.7559 22.9411C51.3015 23.1245 51.8845 23.2256 52.4934 23.2256C55.1394 23.2279 57.3476 21.3426 57.8604 18.839L55.4064 18.3359C55.1277 19.697 53.9311 20.7173 52.4957 20.7149Z" fill="black"/>
<path d="M52.5027 12.2373C51.8963 12.2373 51.3132 12.336 50.7676 12.517L51.5591 14.9007C51.8565 14.802 52.1726 14.7479 52.5004 14.7479C53.9382 14.7503 55.1371 15.7752 55.4088 17.1387L57.8628 16.6403C57.3594 14.132 55.1512 12.2397 52.5027 12.2373Z" fill="black"/>
<path d="M18.3613 11.4752C18.8881 11.2989 19.4501 11.2048 20.0332 11.2048C22.5856 11.2048 24.7165 13.0243 25.2036 15.4433L28.8215 14.7028C27.9925 10.5936 24.3723 7.5 20.0332 7.5C19.038 7.5 18.0849 7.6622 17.1904 7.9631L18.3613 11.4752Z" fill="#FFCB05"/>
<path d="M14.0948 23.2374L16.5418 20.4611C15.4506 19.4903 14.7621 18.0727 14.7621 16.493C14.7621 14.9156 15.4506 13.4981 16.5418 12.5296L14.0948 9.75098C12.2402 11.4012 11.0693 13.8108 11.0693 16.493C11.0693 19.1776 12.2402 21.5872 14.0948 23.2374Z" fill="#00A4E0"/>
<path d="M25.2036 17.5615C24.7142 19.9781 22.5856 21.7953 20.0355 21.7953C19.4501 21.7953 18.8858 21.7013 18.3613 21.5226L17.1904 25.0394C18.0849 25.3379 19.0403 25.5001 20.0355 25.5001C24.37 25.5001 27.9878 22.4112 28.8215 18.3067L25.2036 17.5615Z" fill="#EF4123"/>
</svg>
