<svg width="66" height="33" viewBox="0 0 66 33" fill="none" xmlns="http://www.w3.org/2000/svg">
<path d="M12.7036 10.6006H53.1653V21.2222H12.7036V10.6006Z" fill="white"/>
<path d="M28.8899 25.357L8.42188 25.3634V25.3202C8.42188 25.2963 8.45449 25.1413 8.494 24.976C8.53414 24.8107 8.59622 24.5476 8.63197 24.3914C8.66803 24.2353 8.72918 23.9699 8.76869 23.8019L8.91293 23.1796C8.9537 23.0054 9.01641 22.7303 9.05342 22.5681C9.09042 22.4062 9.15188 22.1408 9.19045 21.9786C9.28775 21.5677 9.38308 21.1564 9.47643 20.7448C9.51218 20.5887 9.56894 20.348 9.60249 20.2099C9.63604 20.0718 9.679 19.8851 9.69782 19.795C9.71663 19.7049 9.77715 19.4398 9.83265 19.2054C9.88816 18.9714 9.9493 18.706 9.96875 18.6159C9.98819 18.5257 10.0496 18.2606 10.1055 18.0263C10.1613 17.7923 10.2227 17.5271 10.2419 17.4367C10.2607 17.3466 10.3225 17.0815 10.3789 16.8472C10.435 16.6131 10.4956 16.3527 10.5137 16.2687C10.549 16.1083 10.5853 15.9481 10.6229 15.7881C10.6649 15.6079 10.7448 15.269 10.8 15.0349C10.8552 14.8006 10.9499 14.393 11.0101 14.1287C11.1 13.7355 11.1907 13.3425 11.282 12.9496L11.4175 12.3711C11.5141 11.9599 11.6099 11.5485 11.7047 11.137C11.7404 10.9812 11.8013 10.7208 11.8402 10.5586C11.879 10.3966 11.9462 10.1115 11.9888 9.92546C12.0382 9.71359 12.0914 9.50244 12.1484 9.29208C12.1933 9.12985 12.2566 8.93352 12.2895 8.85532C12.3221 8.77739 12.4121 8.60823 12.4899 8.47928L12.631 8.24523L12.7593 8.09714C12.8295 8.01589 12.9556 7.88722 13.039 7.81151C13.1385 7.72253 13.2428 7.63785 13.3516 7.55777C13.44 7.49427 13.568 7.4083 13.6363 7.36698C13.7044 7.32566 13.8383 7.25328 13.9336 7.20614C14.0289 7.159 14.1625 7.09743 14.2309 7.06915C14.2989 7.04086 14.4385 6.98928 14.5407 6.95462C14.6429 6.91968 14.838 6.86144 14.974 6.82484C15.1616 6.77737 15.3513 6.73666 15.5426 6.70282C15.7188 6.67204 15.9972 6.63072 16.1619 6.61131L16.4604 6.57609L36.941 6.56916L57.4219 6.5625V6.60576C57.4219 6.62961 57.3889 6.78435 57.3488 6.94963C57.3087 7.11518 57.2416 7.39804 57.1995 7.57802C57.1578 7.75827 57.0967 8.01867 57.0638 8.15677C57.0312 8.29487 56.9688 8.55998 56.9258 8.74633L56.7784 9.37944C56.7405 9.54166 56.679 9.80677 56.6417 9.969C56.6047 10.1312 56.5429 10.3963 56.5044 10.5586C56.4661 10.7208 56.4065 10.9762 56.372 11.1262L56.2337 11.7269C56.192 11.9071 56.1252 12.1919 56.0851 12.36C56.0446 12.528 55.9835 12.7887 55.949 12.9387L55.8107 13.5391C55.769 13.7194 55.7022 14.0042 55.6621 14.1725C55.617 14.3616 55.5727 14.5508 55.5291 14.7402L55.3915 15.3405C55.3014 15.7301 55.2108 16.1195 55.1196 16.5089C55.0798 16.6769 55.012 16.9667 54.9688 17.153C54.9258 17.3388 54.864 17.6045 54.8314 17.7426L54.6969 18.3211C54.6552 18.5013 54.589 18.7861 54.5495 18.9545L54.4125 19.544L54.2729 20.1444L54.1256 20.7778L53.991 21.3563L53.8543 21.9458C53.8129 22.1261 53.7455 22.4098 53.7044 22.5767L53.6298 22.8801L53.5407 23.0897C53.4921 23.2054 53.4185 23.3587 53.3777 23.4306C53.2706 23.6133 53.1454 23.7873 53.0036 23.9505C52.9606 23.9977 52.8314 24.1194 52.7167 24.2212L52.5078 24.4059L52.3065 24.5318C52.1961 24.6011 52.077 24.6715 52.0419 24.6884C52.007 24.7051 51.8738 24.7653 51.7458 24.8216C51.6146 24.8795 51.4808 24.9328 51.3448 24.9813C51.21 25.0247 51.0736 25.0642 50.9359 25.0997C50.8039 25.1335 50.6624 25.1671 50.6217 25.1737C50.5809 25.1807 50.4389 25.2067 50.3065 25.2314C50.1739 25.2561 49.9064 25.293 49.712 25.3135L49.3583 25.3507L28.8899 25.357V25.357ZM21.6077 20.6904H22.1405L22.1556 20.6558C22.1637 20.6366 22.1706 20.592 22.1706 20.5565C22.1706 20.521 22.1882 20.3915 22.2095 20.2689C22.2308 20.1464 22.2813 19.8643 22.3214 19.6422C22.3616 19.4201 22.4218 19.0859 22.4547 18.8998C22.488 18.7138 22.5287 18.4755 22.545 18.3702C22.5613 18.2651 22.5814 18.1791 22.5895 18.1791C22.5974 18.1791 22.6319 18.2257 22.6661 18.2825L22.7278 18.3857L22.8652 18.5077L23.0025 18.6297L23.1719 18.6891L23.3406 18.7487L23.5422 18.7717L23.7435 18.7947L23.9994 18.7811L24.2549 18.7673L24.5318 18.7041L24.8087 18.6408L24.9574 18.5809C25.0389 18.5482 25.1841 18.4764 25.2794 18.4218L25.4528 18.3219L25.6146 18.1797C25.7034 18.1015 25.8288 17.9758 25.8931 17.9007C25.9577 17.8253 26.0103 17.7584 26.0103 17.7518C26.0103 17.7448 26.0417 17.6985 26.0806 17.648C26.1192 17.5981 26.1982 17.4586 26.2562 17.3386C26.3142 17.2185 26.4048 17.0022 26.4578 16.8583L26.5538 16.5962L26.6033 16.3691C26.6306 16.2443 26.666 16.038 26.6814 15.9107L26.7096 15.6791L26.6933 15.4825L26.677 15.2859L26.6253 15.0896L26.5735 14.893L26.4898 14.746L26.4064 14.5987L26.2446 14.4476L26.0831 14.2967L25.8918 14.2097L25.7005 14.1223L25.4901 14.0779L25.2794 14.0336L25.069 14.0197L24.8583 14.0064L24.6237 14.03L24.3892 14.0538L24.1979 14.0968L24.0063 14.1401L23.8401 14.2077C23.7385 14.2498 23.6397 14.2968 23.5441 14.3486C23.4872 14.3795 23.4327 14.4138 23.381 14.4512C23.3622 14.4678 23.318 14.4978 23.2822 14.5186L23.217 14.556L23.2625 14.3641C23.2876 14.2587 23.3086 14.16 23.3092 14.145L23.3101 14.1179H22.4017L22.3221 14.5599C22.2286 15.0789 22.1319 15.5975 22.032 16.1156L21.8959 16.8255C21.8552 17.0355 21.7884 17.3696 21.747 17.5679C21.6066 18.2412 21.4656 18.9145 21.324 19.5876C21.2832 19.7797 21.2164 20.0845 21.1759 20.2645C21.1482 20.3902 21.1191 20.5158 21.0888 20.6411L21.075 20.6904H21.6081H21.6077ZM23.9009 18.1658L23.694 18.1769L23.5588 18.1555L23.4237 18.1345L23.2863 18.0793L23.149 18.0241L23.053 17.9434L22.9571 17.8627L22.9019 17.7534C22.8663 17.68 22.8373 17.6043 22.815 17.5269L22.7833 17.4093L22.7959 17.221L22.8084 17.033L22.8724 16.7382C22.9075 16.576 22.9705 16.2715 23.0126 16.0613C23.0543 15.8511 23.1179 15.543 23.1537 15.3769L23.2183 15.0746L23.3603 14.9706C23.4472 14.9078 23.5391 14.8507 23.6353 14.7998L23.7683 14.7332L23.9417 14.6861L24.1151 14.6389L24.338 14.6273L24.561 14.6156L24.7426 14.6498L24.9241 14.6839L25.0524 14.736L25.1803 14.7879L25.2879 14.8832L25.3951 14.9784L25.4531 15.079C25.4851 15.1345 25.5299 15.2432 25.5525 15.3203L25.5942 15.4606L25.5817 15.8755L25.5688 16.2903L25.5052 16.5358C25.4701 16.6705 25.4036 16.8768 25.3572 16.9941L25.2725 17.2077L25.1693 17.3802C25.1126 17.4753 25.0251 17.6037 24.9746 17.6655C24.9244 17.7274 24.8442 17.8075 24.7965 17.8436C24.7485 17.8796 24.6689 17.9362 24.619 17.9689L24.5281 18.0288L24.318 18.0917L24.1079 18.1547L23.9009 18.1658V18.1658ZM29.0448 18.7659L29.3176 18.7687L29.5898 18.7468C29.7397 18.7348 29.9849 18.7096 30.1348 18.691C30.3277 18.6655 30.5196 18.6346 30.7102 18.5984L31.0131 18.5399L31.0282 18.4414C31.0363 18.3874 31.0705 18.2262 31.1034 18.0834L31.1643 17.8239L31.1508 17.8119L31.1376 17.8003L31.0448 17.8397C30.9293 17.8826 30.8117 17.9209 30.6923 17.9545L30.4327 18.0299L30.1599 18.0765L29.8871 18.1231L29.4537 18.1239L29.02 18.1245L28.8714 18.0829C28.7803 18.0565 28.691 18.0252 28.6042 17.9891L28.4857 17.9376L28.3879 17.8596L28.29 17.7817L28.2135 17.6641L28.1373 17.5466L28.0894 17.399L28.0417 17.2512L28.0414 16.9783L28.0408 16.7052L28.0834 16.4617L28.1257 16.2182L28.4989 16.203L28.8714 16.1874L30.2496 16.1952L31.6274 16.203L31.6691 16.0477C31.7009 15.9176 31.7268 15.7864 31.7469 15.6545L31.783 15.4171L31.7836 15.2174L31.7845 15.0177L31.7453 14.8683L31.7058 14.7194L31.6412 14.6206C31.5998 14.5592 31.5531 14.5007 31.5014 14.4456C31.4521 14.3971 31.3975 14.3531 31.3383 14.3142C31.2697 14.2734 31.1987 14.2357 31.1257 14.2013L31.0018 14.1431L30.7855 14.0973L30.5691 14.0513L30.3026 14.0288L30.036 14.0064L29.7883 14.0203L29.5406 14.0347L29.243 14.0851L28.9457 14.1353L28.7601 14.2008C28.6579 14.2368 28.5017 14.3026 28.4133 14.3469C28.3245 14.391 28.2019 14.4631 28.1405 14.5069C28.0589 14.567 27.9802 14.6301 27.9047 14.6961C27.8226 14.7709 27.7475 14.8514 27.6798 14.9368C27.6246 15.0089 27.5397 15.1364 27.4917 15.2205C27.4431 15.3045 27.38 15.4223 27.3515 15.4825C27.323 15.5427 27.2709 15.6655 27.2361 15.7554C27.201 15.8455 27.1461 16.0175 27.1138 16.1375C27.076 16.283 27.0434 16.4295 27.016 16.5768L26.9765 16.7978V17.1228L26.9771 17.4478L27.0147 17.5895C27.0354 17.6677 27.0749 17.7856 27.1025 17.8516C27.1304 17.9179 27.1816 18.016 27.2164 18.0701C27.2515 18.1242 27.3261 18.211 27.3819 18.2634C27.4384 18.3158 27.54 18.3951 27.608 18.4398C27.6761 18.4844 27.7974 18.5474 27.8777 18.5795L28.0232 18.6378L28.2264 18.6813C28.338 18.7049 28.5064 18.7332 28.6008 18.744C28.6952 18.7545 28.8949 18.7645 29.0448 18.7659V18.7659ZM29.5114 15.6899C28.8256 15.6899 28.2646 15.6855 28.2646 15.6802C28.2646 15.675 28.2938 15.599 28.3296 15.5111C28.3653 15.4235 28.428 15.2926 28.4691 15.2207L28.5437 15.0901L28.7077 14.9462L28.8714 14.8028L29.0326 14.7349C29.121 14.6974 29.238 14.657 29.2929 14.6445C29.3471 14.6323 29.503 14.6159 29.6394 14.6082L29.8871 14.5943L30.0774 14.6156L30.2675 14.6373L30.4057 14.693L30.544 14.7488L30.6199 14.8209C30.6616 14.8605 30.7115 14.919 30.7303 14.9506L30.7648 15.0083L30.788 15.1362L30.8106 15.2643L30.7845 15.477L30.7585 15.6899H29.5114ZM36.9228 18.7662L37.1953 18.7687L37.5048 18.7365C37.6733 18.719 37.8413 18.6971 38.0084 18.6711C38.115 18.6527 38.2878 18.6164 38.3922 18.5906C38.4969 18.5646 38.5913 18.5363 38.6023 18.528C38.6133 18.5196 38.6431 18.4206 38.6678 18.3078C38.6929 18.1952 38.7246 18.0438 38.7381 17.9717C38.7516 17.8996 38.7585 17.8369 38.7534 17.8322C38.7484 17.8275 38.7302 17.8336 38.713 17.8458C38.6954 17.858 38.5741 17.9029 38.4427 17.9459L38.2044 18.0241L37.8645 18.082L37.5249 18.1403L37.2361 18.1314L36.9472 18.1228L36.7832 18.0726L36.6192 18.0224L36.4926 17.9245L36.3656 17.8269L36.2815 17.6919L36.1975 17.5568L36.1574 17.3766L36.1175 17.1958V16.9614L36.1178 16.7271L36.1664 16.4434L36.2154 16.1594L36.2668 16.0066C36.295 15.9226 36.327 15.8242 36.338 15.7881C36.3486 15.7521 36.3941 15.6489 36.4389 15.5591C36.4835 15.4689 36.5634 15.3297 36.6161 15.2496L36.7118 15.104L36.8297 14.9964L36.9476 14.8888L37.0721 14.8206L37.1969 14.7526L37.3571 14.7091C37.4707 14.68 37.5862 14.6568 37.703 14.6398L37.8889 14.6145L38.1614 14.6265L38.4339 14.6387L38.756 14.6955L39.078 14.7524L39.2088 14.7953C39.2809 14.8189 39.343 14.8383 39.3467 14.8383C39.3508 14.8383 39.3681 14.7573 39.3853 14.6581C39.4067 14.5371 39.4295 14.4164 39.4537 14.2959C39.4737 14.1961 39.4856 14.1095 39.4797 14.1046C39.4737 14.099 39.3768 14.0854 39.2646 14.0741C39.0387 14.0553 38.8125 14.0405 38.586 14.0297L38.1119 14.0056L37.7773 14.0283L37.443 14.0508L37.1953 14.0968L36.9476 14.1425L36.788 14.1988C36.7002 14.2299 36.5716 14.2856 36.5023 14.3228C36.433 14.3602 36.3449 14.4104 36.3063 14.4343C36.2677 14.4584 36.1508 14.5521 36.0463 14.6425L35.8566 14.8073L35.7506 14.944C35.6923 15.0191 35.5917 15.1761 35.5267 15.2926L35.4088 15.5044L35.3182 15.7335C35.2687 15.8597 35.1991 16.0663 35.1639 16.1922L35.1 16.4215L35.0768 16.6289L35.0536 16.8364L35.0539 17.1092V17.3821L35.0774 17.541L35.1009 17.6999L35.1752 17.8632L35.2492 18.0266L35.3352 18.1444L35.4208 18.2626L35.5569 18.381L35.6933 18.4991L35.8375 18.5662L35.9817 18.6333L36.1708 18.6797C36.2753 18.7052 36.4258 18.7346 36.5054 18.7448C36.5851 18.7551 36.7732 18.7648 36.9231 18.7662H36.9228ZM40.9977 18.7581L41.332 18.7495L41.5427 18.7021L41.7531 18.6547L41.8895 18.5978C41.9645 18.5665 42.0871 18.5049 42.162 18.4609C42.237 18.4165 42.3527 18.3327 42.4198 18.2745C42.4866 18.2163 42.5857 18.1164 42.6399 18.0532C42.6942 17.9897 42.7418 17.9406 42.7459 17.9442C42.75 17.9478 42.7374 18.0488 42.718 18.1688C42.699 18.2863 42.6872 18.4046 42.6826 18.5232L42.6822 18.6597H43.5913L43.6054 18.3485L43.6192 18.0374L43.6841 17.6334C43.7199 17.4112 43.7776 17.0821 43.8121 16.9018C43.8994 16.4537 43.9901 16.0061 44.0839 15.5591L44.1504 15.2424L44.1529 14.9689L44.1551 14.6952L44.0849 14.5691L44.0146 14.4426L43.9196 14.3622L43.8243 14.2818L43.6681 14.2119L43.512 14.142L43.2793 14.0965L43.0463 14.0508L42.7258 14.0291L42.4054 14.0078L41.9927 14.0302C41.7657 14.0427 41.4461 14.0671 41.2824 14.0846L40.9852 14.1165L40.7826 14.117L40.58 14.1179L40.5506 14.2435C40.5342 14.3123 40.4894 14.4764 40.4505 14.6079C40.4116 14.7393 40.3834 14.8502 40.3878 14.8541C40.3922 14.858 40.5007 14.8361 40.6286 14.8059C40.7566 14.7754 41.0284 14.7255 41.2329 14.695L41.6045 14.6389L41.9391 14.627L42.2733 14.6148L42.4888 14.6481L42.7042 14.6814L42.8481 14.7438L42.9917 14.8064L43.0723 14.9121L43.1529 15.018L43.1517 15.1847L43.1504 15.3516L43.1078 15.5347L43.0651 15.7177L42.1739 15.7205L41.2824 15.7232L40.9908 15.7937C40.8303 15.8325 40.6528 15.8841 40.596 15.9082C40.5393 15.9323 40.4825 15.952 40.47 15.952C40.4574 15.952 40.3618 15.9986 40.2577 16.0557L40.0686 16.1594L39.9196 16.2903C39.8378 16.3624 39.7331 16.4706 39.687 16.5308C39.6237 16.6198 39.5683 16.713 39.5211 16.8095L39.4386 16.9789L39.4007 17.1697L39.3627 17.3605V17.7604L39.3988 17.927L39.4352 18.0934L39.5023 18.2021C39.539 18.262 39.6067 18.3496 39.6525 18.3968L39.7359 18.4828L39.8842 18.5621L40.0322 18.6414L40.2019 18.6835C40.2953 18.7068 40.437 18.7351 40.5173 18.7462L40.6634 18.7664L40.9977 18.7581V18.7581ZM41.3072 18.1475L41.109 18.1566L40.978 18.1272C40.8941 18.1072 40.8125 18.0803 40.7343 18.0468L40.6224 17.9961L40.5609 17.9317C40.5177 17.8836 40.4795 17.8321 40.4468 17.7778L40.3934 17.688L40.3831 17.4781L40.3728 17.2681L40.4148 17.1406C40.438 17.0707 40.4919 16.9492 40.5352 16.8707L40.6136 16.7279L40.7638 16.5965L40.914 16.465L41.0736 16.3974L41.2329 16.3297L41.4311 16.2881L41.6292 16.2465H42.8679L42.9071 16.2609L42.9463 16.2754L42.9133 16.4467C42.8952 16.541 42.8519 16.7113 42.8171 16.8253C42.7826 16.9395 42.7211 17.1073 42.681 17.198C42.6536 17.2565 42.6292 17.3161 42.6079 17.3766C42.6079 17.384 42.5672 17.4503 42.5173 17.5238L42.427 17.6578L42.2784 17.7875C42.1965 17.8588 42.1206 17.9173 42.1096 17.9173C42.0987 17.9173 42.0488 17.9417 41.9983 17.9719L41.9071 18.0263L41.7064 18.0823L41.5054 18.1383L41.3072 18.1475V18.1475ZM49.3708 18.7659L49.606 18.7684L49.8289 18.7365C49.9516 18.719 50.1077 18.6907 50.1758 18.6738C50.2438 18.6566 50.3664 18.6128 50.4483 18.5757L50.5969 18.5085L50.7248 18.4095L50.8528 18.3103L50.9873 18.1519C51.0613 18.0648 51.1284 17.9789 51.1362 17.9609L51.1507 17.9281L51.1381 18.0374C51.1312 18.0973 51.1159 18.1955 51.1039 18.2556C51.092 18.3158 51.0748 18.4312 51.0657 18.5122L51.0494 18.6597H52.0215V18.3649L52.0955 17.8081C52.1362 17.5016 52.1964 17.094 52.2291 16.9018C52.262 16.7096 52.3128 16.4345 52.3419 16.2903C52.3711 16.1461 52.4228 15.886 52.4567 15.7119C52.4906 15.5377 52.552 15.2329 52.5928 15.0349C52.6339 14.8367 52.6994 14.5222 52.7386 14.3361L52.8741 13.6919C52.9092 13.5239 52.9725 13.2291 53.0146 13.0369C53.0563 12.8447 53.1177 12.5746 53.1507 12.4365C53.1836 12.2984 53.2105 12.1781 53.2102 12.1689V12.1526H52.15L52.1344 12.289C52.1259 12.3639 52.0851 12.6123 52.044 12.8406C52.0033 13.0685 51.9365 13.4321 51.8957 13.6484L51.8086 14.1143L51.7954 14.1869L51.7534 14.1714C51.662 14.1457 51.5695 14.123 51.4762 14.1034L51.241 14.0513L50.9189 14.0291L50.5969 14.0069L50.3244 14.0297L50.0519 14.0519L49.8042 14.1073L49.5565 14.1622L49.321 14.2635L49.0858 14.3647L48.9124 14.4778L48.739 14.591L48.5891 14.7324C48.4948 14.8232 48.4066 14.9188 48.3247 15.0186L48.21 15.1633L48.0754 15.4101C48.0014 15.546 47.9111 15.726 47.8751 15.81C47.8211 15.9461 47.7739 16.0843 47.7336 16.2241L47.6577 16.4856L47.6204 16.8247L47.5831 17.1639L47.6113 17.4367L47.6392 17.7096L47.6725 17.8081C47.6907 17.8621 47.7292 17.9584 47.7578 18.0219L47.8101 18.1378L47.9055 18.2515L48.0008 18.3652L48.1099 18.4439L48.2187 18.5224L48.3674 18.5876C48.4492 18.6234 48.5862 18.6697 48.6722 18.6902C48.7581 18.711 48.8973 18.7359 48.9817 18.7457C49.0663 18.7554 49.2413 18.7645 49.3705 18.7659H49.3708V18.7659ZM49.7932 18.1464L49.606 18.155L49.4796 18.135C49.3952 18.12 49.3126 18.0981 49.2328 18.0696L49.1121 18.0238L49.0105 17.9506L48.9092 17.8771L48.8337 17.7495L48.7581 17.6225L48.7239 17.4806L48.6894 17.3386L48.6922 17.0546L48.6954 16.7709L48.7352 16.5197L48.775 16.2687L48.8371 16.094C48.8713 15.9978 48.8995 15.9071 48.8995 15.8924C48.8998 15.8777 48.9337 15.7992 48.9745 15.7177C49.0155 15.6364 49.0839 15.5108 49.1269 15.4387C49.1695 15.3666 49.2491 15.2546 49.304 15.1891C49.3589 15.124 49.4567 15.0255 49.5213 14.9709C49.5859 14.916 49.6888 14.8441 49.7496 14.8109L49.8606 14.751L50.0554 14.6913L50.2501 14.632H51.0676L51.3031 14.6894C51.4323 14.721 51.5699 14.7576 51.6085 14.7709L51.6784 14.7951L51.6646 14.855C51.6419 14.962 51.6202 15.0693 51.5994 15.1766C51.5159 15.5958 51.4287 16.0144 51.3379 16.4323C51.3048 16.5861 51.2671 16.739 51.2247 16.891C51.1974 16.9811 51.1591 17.1056 51.1397 17.1683C51.1115 17.2504 51.0767 17.3307 51.0356 17.4085C50.993 17.4862 50.9443 17.5613 50.8898 17.6331C50.8419 17.6926 50.7882 17.7483 50.7292 17.7995C50.66 17.8531 50.5869 17.9025 50.5103 17.9475L50.3739 18.0274L50.177 18.0826L49.9801 18.1375L49.7932 18.1464V18.1464ZM13.334 18.6594H13.9361L13.9791 18.4248C14.0029 18.2958 14.0493 18.0477 14.0822 17.8735L14.2186 17.153C14.2607 16.9309 14.3234 16.6017 14.3585 16.4215C14.3933 16.2412 14.4488 15.962 14.4817 15.8003C14.5147 15.6392 14.5479 15.5014 14.5554 15.4947L14.5695 15.4825H17.8063L17.8244 15.4983L17.8423 15.5141L17.8141 15.6403C17.7987 15.7096 17.7533 15.9237 17.7128 16.1159L17.562 16.8364C17.5193 17.0405 17.4579 17.3302 17.4253 17.4806C17.3923 17.6306 17.3265 17.9451 17.2782 18.1794C17.2302 18.4134 17.1907 18.6175 17.191 18.6322V18.6597H18.3999L18.4268 18.5232C18.4416 18.4481 18.4651 18.313 18.4792 18.2229C18.5027 18.0808 18.5281 17.9389 18.5554 17.7972C18.583 17.653 18.6385 17.368 18.6783 17.1639C18.7181 16.9598 18.7849 16.6109 18.8266 16.3888C18.8683 16.1666 18.9301 15.8425 18.9643 15.668C18.9982 15.4939 19.0587 15.1994 19.0985 15.013C19.1959 14.5585 19.2912 14.1036 19.3845 13.6484L19.5237 12.9715C19.566 12.7674 19.6194 12.5289 19.6422 12.4418L19.6843 12.2837H18.4604L18.4434 12.3874C18.4344 12.4443 18.4049 12.604 18.3779 12.7424C18.3509 12.8802 18.302 13.1259 18.2688 13.2881C18.2359 13.4501 18.1757 13.7596 18.1349 13.9759C18.0941 14.1922 18.0424 14.4781 18.0195 14.6118L17.9784 14.8547L17.08 14.8708L16.1816 14.8866L15.429 14.871C15.0151 14.8625 14.6746 14.8536 14.6718 14.8516C14.6689 14.8494 14.683 14.7646 14.7031 14.6631C14.7232 14.5613 14.7608 14.3846 14.7872 14.2707C14.8135 14.1564 14.8634 13.9307 14.8982 13.7685C14.9327 13.6062 14.9718 13.4049 14.985 13.3209C14.9985 13.2368 15.0264 13.0968 15.0471 13.0097C15.0678 12.9227 15.1073 12.7391 15.1349 12.6021C15.1622 12.4651 15.1914 12.3372 15.1995 12.3181L15.2149 12.2837H14.0004L13.9615 12.4748C13.9402 12.5799 13.9116 12.7296 13.8982 12.8076C13.8847 12.8858 13.8395 13.1362 13.7978 13.3644C13.7558 13.5926 13.6943 13.9318 13.6605 14.1179L13.5247 14.871C13.4833 15.0993 13.4153 15.4531 13.3736 15.6572C13.3315 15.8613 13.271 16.1511 13.2387 16.3014L13.1023 16.9345C13.0593 17.1328 12.9969 17.4129 12.9634 17.5568C12.9298 17.701 12.8925 17.868 12.8809 17.9281C12.869 17.9883 12.8308 18.1614 12.7956 18.313C12.7605 18.4645 12.732 18.6048 12.732 18.6242V18.6597H13.334V18.6594ZM19.9975 18.6594H20.5303L20.5453 18.625C20.5561 18.5888 20.5612 18.5515 20.5604 18.5141C20.5604 18.4725 20.5936 18.2545 20.6347 18.0302C20.7284 17.5191 20.8241 17.0083 20.922 16.4978C20.9558 16.3239 21.0154 16.0338 21.0549 15.8538C21.0944 15.6736 21.1549 15.3935 21.1897 15.2313C21.2242 15.0693 21.292 14.761 21.3403 14.546C21.3889 14.3311 21.4346 14.1467 21.4422 14.1362L21.4557 14.1168L20.9166 14.1229L20.3779 14.1287L20.3331 14.4126C20.3083 14.5688 20.2547 14.8783 20.213 15.1004L20.0744 15.8538C20.0392 16.0457 19.9784 16.3555 19.9386 16.5416L19.8037 17.1747C19.7191 17.5681 19.6321 17.9612 19.5425 18.3538C19.5162 18.4681 19.4877 18.5834 19.4798 18.6106L19.4644 18.6597H19.9975V18.6594ZM32.4597 18.6594H32.9887L33.0043 18.4625C33.0131 18.3538 33.0432 18.1353 33.0711 17.9764C33.0987 17.8178 33.1558 17.5013 33.1978 17.2731C33.2395 17.0449 33.3173 16.665 33.3703 16.429C33.4236 16.1933 33.4838 15.9584 33.5042 15.9076C33.5246 15.8569 33.5412 15.8023 33.5412 15.7856C33.5412 15.769 33.5807 15.6794 33.6293 15.5862C33.6883 15.4768 33.7556 15.371 33.8306 15.2695L33.9435 15.1217L34.0946 14.9986L34.2458 14.8752L34.4324 14.7967L34.6186 14.7182L34.9037 14.7196L35.1884 14.721L35.3286 14.7579C35.4054 14.7781 35.4753 14.7948 35.4832 14.7948C35.4913 14.7948 35.4982 14.7715 35.4982 14.7432C35.4982 14.7146 35.5258 14.571 35.56 14.4235C35.5942 14.2759 35.6221 14.1492 35.6221 14.1417C35.6221 14.1339 35.5412 14.1062 35.4424 14.0796C35.3429 14.0529 35.2415 14.0324 35.1389 14.018L35.015 14.0044L34.8541 14.0297C34.7654 14.0435 34.6337 14.0741 34.5613 14.0973C34.4891 14.1209 34.3693 14.1739 34.2957 14.2155C34.2051 14.269 34.1199 14.3293 34.041 14.3957C33.952 14.4765 33.869 14.5624 33.7927 14.6528L33.6296 14.8494L33.5945 14.893L33.6158 14.8056C33.6277 14.7576 33.6607 14.6004 33.6892 14.4562C33.7174 14.312 33.7469 14.1769 33.7541 14.1561L33.7673 14.1179H32.8228V14.1706C32.8228 14.1994 32.7946 14.3738 32.7607 14.558C32.7265 14.7421 32.6704 15.0502 32.6359 15.2424C32.6014 15.4345 32.5399 15.7687 32.4995 15.9847C32.4587 16.201 32.3976 16.5105 32.3628 16.6725C32.2345 17.2727 32.1022 17.8723 31.9658 18.4711C31.9518 18.5271 31.9402 18.5835 31.931 18.6403V18.6597H32.4597V18.6594ZM45.0149 18.6594H45.5559V18.3682L45.6179 18.0063C45.6524 17.8072 45.7089 17.4922 45.7437 17.3061C45.7785 17.12 45.8221 16.8841 45.8403 16.782C45.8585 16.68 45.9067 16.4589 45.9475 16.2906C45.9883 16.1226 46.0394 15.9409 46.061 15.8868C46.0823 15.8328 46.1002 15.7759 46.1002 15.7607C46.1005 15.7454 46.1466 15.6472 46.2028 15.5427L46.305 15.3525L46.4395 15.1947L46.5743 15.0369L46.7217 14.9393C46.8026 14.8857 46.9331 14.8145 47.0112 14.7812L47.1535 14.7202L47.4633 14.7221L47.7728 14.7241L47.8948 14.7585L48.0168 14.7928L48.0372 14.7818L48.0579 14.7707L48.0588 14.7011C48.0594 14.6625 48.0858 14.52 48.1178 14.3841L48.1755 14.1367L48.1106 14.1145C48.0481 14.0941 47.985 14.075 47.9215 14.0574L47.7976 14.023L47.5746 14.0236L47.3517 14.0241L47.1701 14.0804L46.9883 14.1367L46.8519 14.2094L46.7155 14.2818L46.538 14.4454L46.3608 14.6093L46.2655 14.7366C46.2131 14.8062 46.167 14.8602 46.1629 14.8566C46.1589 14.8527 46.1874 14.7069 46.2263 14.533C46.2652 14.3589 46.2971 14.1941 46.2978 14.1672L46.299 14.1181H45.3824V14.132C45.3824 14.1398 45.3595 14.2795 45.3316 14.4432C45.3037 14.6068 45.2476 14.9221 45.2068 15.1445C45.1664 15.3663 45.0996 15.7252 45.0588 15.9415C45.0181 16.1578 44.9566 16.467 44.9221 16.6292C44.8772 16.8403 44.832 17.0513 44.7863 17.2623C44.7462 17.4487 44.68 17.7482 44.6393 17.9284L44.5198 18.4581L44.474 18.66H45.0149V18.6594ZM21.0452 13.3311L21.1957 13.3317L21.3149 13.2956L21.4346 13.2599L21.5403 13.1653L21.6463 13.0707L21.7021 12.9446L21.7576 12.8187L21.7598 12.6329L21.7617 12.4473L21.7122 12.375L21.6626 12.3026L21.5764 12.2554L21.4902 12.2083H21.1176L20.9909 12.2582L20.8639 12.3081L20.7906 12.3777L20.7169 12.4473L20.6592 12.5674L20.6012 12.6875L20.5902 12.8747L20.5795 13.0619L20.6331 13.1548L20.6871 13.2477L20.7909 13.2893L20.8947 13.3309L21.0452 13.3311V13.3311Z" fill="#B3131B"/>
</svg>
