<svg width="43" height="33" viewBox="0 0 43 33" fill="none" xmlns="http://www.w3.org/2000/svg">
<g clip-path="url(#clip0_18382_13951)">
<path fill-rule="evenodd" clip-rule="evenodd" d="M10.3846 27.6724H34.0347C34.1322 27.5619 34.2074 27.5373 34.3415 27.4071C34.6634 27.1002 34.9 26.7192 35.0292 26.2997C35.2501 25.6388 35.2986 24.935 35.1704 24.2515C34.9195 22.9912 34.5416 21.6767 34.2267 20.4114L31.3842 8.91017C31.0561 7.59566 30.2748 6.74265 29.2854 6.1983C27.9169 5.44391 26.7923 5.62437 25.2512 5.98431C23.9214 6.29495 22.6312 6.60459 21.3055 6.90438C20.6066 7.06314 10.409 9.36084 9.52414 9.7119C8.44425 10.1389 7.51877 10.9988 7.12663 12.1348C6.66135 13.4848 7.20181 14.898 7.51674 16.176L9.42865 23.8274C9.73342 25.0956 10.1195 26.3963 10.3836 27.6733L10.3846 27.6724Z" fill="#ED6B06"/>
<path fill-rule="evenodd" clip-rule="evenodd" d="M30.9116 18.1803L30.8618 17.3579L29.5422 17.3313L29.5828 22.0647L31.1097 22.0874C31.1077 21.2807 31.0894 20.4682 31.1097 19.6862C31.1321 18.8085 31.6715 18.5225 32.5909 18.6487L32.5888 17.2405C31.1717 17.1774 31.1524 18.0038 30.9116 18.1803ZM28.7742 21.904L28.5862 20.9178C28.3282 20.8784 27.7186 21.1644 26.908 21.0519C26.4244 20.9849 25.8392 20.6979 25.8799 20.197L29.0038 20.1901C29.1287 18.8026 28.7599 17.7168 27.6628 17.347C26.589 16.9851 25.2693 17.3845 24.7004 18.4722C23.9791 19.8528 24.4414 22.117 26.8338 22.186C27.6973 22.2107 28.0468 22.0785 28.7742 21.903V21.904ZM10.1548 22.0775H11.699V19.3637H14.2042V22.0775H15.7483V15.498H14.2042V18.0176H11.698V15.498H10.1538V22.0775H10.1548ZM20.3402 18.0314C20.3026 17.1469 20.645 17.4062 18.9819 17.3579L19.0317 21.0303C18.6558 21.0145 18.4262 20.8232 18.2891 20.5589C18.0016 20.0086 18.091 18.7681 18.091 18.1241L18.09 17.3451H16.5682C16.4767 18.0452 16.5204 20.2275 16.7368 20.8163C17.1757 22.0134 18.1144 22.0677 19.0226 22.2245V24.0192C19.372 24.0192 20.2599 24.0685 20.5403 23.9867V22.2087C22.0438 22.2067 23.4031 22.2077 23.8928 20.7147C24.0377 20.2414 24.0799 19.7441 24.0167 19.2542C23.8908 18.1695 23.2101 17.4259 22.3181 17.2751C21.4597 17.1301 21.031 17.4062 20.4509 17.9368C20.4157 17.9701 20.3787 18.0017 20.3402 18.0314V18.0314Z" fill="white"/>
<path fill-rule="evenodd" clip-rule="evenodd" d="M21.1932 18.4664C20.5451 18.6962 20.541 19.3145 20.541 20.0728C20.541 20.2661 20.542 20.4584 20.539 20.6517C20.536 20.8884 20.473 21.0274 20.667 21.0599C20.8641 21.0925 21.5986 21.0718 21.7804 21.0146C22.9609 20.6428 22.6317 17.9566 21.1932 18.4664V18.4664ZM25.8511 19.1715H27.6289C27.5842 17.8718 26.0218 17.8994 25.8511 19.1715Z" fill="#ED6B06"/>
<path fill-rule="evenodd" clip-rule="evenodd" d="M17.3304 15.2334C17.4372 15.2335 17.543 15.254 17.6417 15.2937C17.7404 15.3335 17.8301 15.3917 17.9056 15.4651C17.9811 15.5385 18.041 15.6256 18.0819 15.7215C18.1227 15.8173 18.1437 15.9201 18.1436 16.0238C18.1435 16.1275 18.1224 16.2302 18.0815 16.326C18.0405 16.4218 17.9805 16.5089 17.9049 16.5822C17.8293 16.6555 17.7396 16.7136 17.6408 16.7532C17.542 16.7929 17.4362 16.8132 17.3294 16.8132C17.1135 16.8132 16.9066 16.73 16.754 16.5818C16.6014 16.4337 16.5156 16.2328 16.5156 16.0233C16.5156 15.8138 16.6014 15.6129 16.754 15.4648C16.9066 15.3166 17.1135 15.2334 17.3294 15.2334H17.3304Z" fill="#FFED00"/>
</g>
<defs>
<clipPath id="clip0_18382_13951">
<rect width="29" height="23" fill="white" transform="translate(6.50391 4.99414)"/>
</clipPath>
</defs>
</svg>
