<svg width="50" height="32" viewBox="0 0 50 32" fill="none" xmlns="http://www.w3.org/2000/svg">
<path d="M29.2714 8.13818H20.5225V23.8614H29.2714V8.13818Z" fill="#605DC4"/>
<path d="M21.0779 16.0017C21.0763 14.4872 21.4193 12.9922 22.081 11.63C22.7426 10.2677 23.7056 9.07378 24.8969 8.13872C23.4219 6.97947 21.6504 6.2586 19.785 6.05851C17.9196 5.85841 16.0356 6.18715 14.3482 7.00716C12.6608 7.82718 11.2382 9.10538 10.2429 10.6957C9.24754 12.286 8.71973 14.1242 8.71973 16.0003C8.71973 17.8764 9.24754 19.7146 10.2429 21.3049C11.2382 22.8952 12.6608 24.1734 14.3482 24.9935C16.0356 25.8135 17.9196 26.1422 19.785 25.9421C21.6504 25.742 23.4219 25.0211 24.8969 23.8619C23.706 22.9271 22.7432 21.7337 22.0816 20.3719C21.42 19.0101 21.0767 17.5157 21.0779 16.0017Z" fill="#E30016"/>
<path d="M41.0761 16.0014C41.0761 17.8776 40.5482 19.716 39.5527 21.3063C38.5572 22.8967 37.1343 24.1749 35.4467 24.9948C33.7591 25.8147 31.8749 26.1432 30.0094 25.9428C28.1439 25.7424 26.3724 25.0212 24.8975 23.8616C26.088 22.926 27.0504 21.7322 27.7122 20.3704C28.3741 19.0085 28.7179 17.5141 28.7179 16C28.7179 14.4859 28.3741 12.9915 27.7122 11.6296C27.0504 10.2678 26.088 9.07402 24.8975 8.13841C26.3724 6.9788 28.1439 6.25758 30.0094 6.0572C31.8749 5.85681 33.7591 6.18534 35.4467 7.00524C37.1343 7.82514 38.5572 9.10332 39.5527 10.6937C40.5482 12.284 41.0761 14.1224 41.0761 15.9986V16.0014Z" fill="#128FDE"/>
<path d="M40.1209 22.195V21.8728H40.2514V21.8062H39.9209V21.8728H40.0625V22.195H40.1209ZM40.7625 22.195V21.8062H40.6625L40.5458 22.0839L40.4292 21.8062H40.3403V22.195H40.4125V21.9034L40.5208 22.1561H40.5958L40.7041 21.9034V22.1978L40.7625 22.195Z" fill="#128FDE"/>
</svg>
