<svg width="49" height="32" viewBox="0 0 49 32" fill="none" xmlns="http://www.w3.org/2000/svg">
<path d="M28.7441 8.13818H19.9951V23.8614H28.7441V8.13818Z" fill="#FF5D11"/>
<path d="M20.5506 16.0017C20.549 14.4872 20.892 12.9922 21.5536 11.63C22.2153 10.2677 23.1783 9.07378 24.3696 8.13872C22.8945 6.97947 21.1231 6.2586 19.2577 6.05851C17.3923 5.85841 15.5082 6.18715 13.8209 7.00716C12.1335 7.82718 10.7108 9.10538 9.71551 10.6957C8.7202 12.286 8.19238 14.1242 8.19238 16.0003C8.19238 17.8764 8.7202 19.7146 9.71551 21.3049C10.7108 22.8952 12.1335 24.1734 13.8209 24.9935C15.5082 25.8135 17.3923 26.1422 19.2577 25.9421C21.1231 25.742 22.8945 25.0211 24.3696 23.8619C23.1786 22.9271 22.2159 21.7337 21.5542 20.3719C20.8926 19.0101 20.5494 17.5157 20.5506 16.0017Z" fill="#EC0021"/>
<path d="M40.5488 16.0014C40.5487 17.8776 40.0208 19.716 39.0253 21.3063C38.0298 22.8967 36.607 24.1749 34.9194 24.9948C33.2318 25.8147 31.3475 26.1432 29.4821 25.9428C27.6166 25.7424 25.8451 25.0212 24.3701 23.8616C25.5606 22.926 26.5231 21.7322 27.1849 20.3704C27.8467 19.0085 28.1906 17.5141 28.1906 16C28.1906 14.4859 27.8467 12.9915 27.1849 11.6296C26.5231 10.2678 25.5606 9.07402 24.3701 8.13841C25.8451 6.9788 27.6166 6.25758 29.4821 6.0572C31.3475 5.85681 33.2318 6.18534 34.9194 7.00524C36.607 7.82514 38.0298 9.10332 39.0253 10.6937C40.0208 12.284 40.5487 14.1224 40.5488 15.9986V16.0014Z" fill="#F89E26"/>
<path d="M39.5935 22.195V21.8728H39.7241V21.8062H39.3936V21.8728H39.5352V22.195H39.5935ZM40.2351 22.195V21.8062H40.1351L40.0185 22.0839L39.9018 21.8062H39.813V22.195H39.8852V21.9034L39.9935 22.1561H40.0685L40.1768 21.9034V22.1978L40.2351 22.195Z" fill="#F89E26"/>
</svg>
