<svg width="73" height="32" viewBox="0 0 73 32" fill="none" xmlns="http://www.w3.org/2000/svg">
<g clip-path="url(#clip0_18382_14022)">
<path d="M31.3584 24.6748V13.2039C31.3584 12.1905 31.7591 11.2186 32.4724 10.502C33.1857 9.78539 34.1531 9.38281 35.1618 9.38281L38.5326 9.38754C39.5387 9.38957 40.5029 9.79257 41.2135 10.5081C41.9242 11.2236 42.3232 12.1931 42.3231 13.2039V15.645C42.3231 16.6585 41.9224 17.6304 41.2091 18.3471C40.4958 19.0638 39.5284 19.4665 38.5197 19.4667H33.7553" stroke="black" stroke-width="1.03088" stroke-linecap="round" stroke-linejoin="round"/>
<path d="M43.2646 9.38281H44.727C45.141 9.38281 45.5381 9.54805 45.8309 9.84217C46.1236 10.1363 46.2881 10.5352 46.2881 10.9512V19.5192" stroke="black" stroke-width="1.03088" stroke-linecap="round" stroke-linejoin="round"/>
<path d="M45.9729 8.05546L45.3099 7.38879C45.2708 7.34953 45.2398 7.3029 45.2186 7.25159C45.1974 7.20027 45.1865 7.14526 45.1865 7.08971C45.1865 7.03416 45.1974 6.97915 45.2186 6.92783C45.2398 6.87651 45.2708 6.82989 45.3099 6.79062L45.9729 6.12455C46.052 6.04511 46.1593 6.00049 46.2712 6.00049C46.3831 6.00049 46.4903 6.04511 46.5695 6.12455L47.2319 6.79062C47.271 6.82989 47.302 6.87651 47.3232 6.92783C47.3444 6.97915 47.3553 7.03416 47.3553 7.08971C47.3553 7.14526 47.3444 7.20027 47.3232 7.25159C47.302 7.3029 47.271 7.34953 47.2319 7.38879L46.5665 8.05546C46.5274 8.09478 46.4809 8.12596 46.4298 8.14724C46.3787 8.16852 46.3239 8.17947 46.2685 8.17947C46.2132 8.17947 46.1584 8.16852 46.1073 8.14724C46.0561 8.12596 46.0097 8.09478 45.9705 8.05546" fill="#32BCAD"/>
<path d="M49.0957 9.37598H50.5457C51.2916 9.37567 52.007 9.67303 52.5347 10.2027L55.9266 13.6104C56.0311 13.7154 56.1551 13.7988 56.2916 13.8556C56.4281 13.9125 56.5744 13.9417 56.7222 13.9417C56.8699 13.9417 57.0163 13.9125 57.1528 13.8556C57.2893 13.7988 57.4133 13.7154 57.5177 13.6104L60.8973 10.2157C61.1584 9.95338 61.4685 9.74536 61.8096 9.60352C62.1508 9.46167 62.5165 9.38876 62.8857 9.38897H64.0648" stroke="black" stroke-width="1.03088" stroke-linecap="round" stroke-linejoin="round"/>
<path d="M49.0957 19.4442H50.5457C51.2916 19.4444 52.007 19.1471 52.5347 18.6175L55.9266 15.2097C56.1377 14.9979 56.4238 14.8789 56.7222 14.8789C57.0205 14.8789 57.3067 14.9979 57.5177 15.2097L60.8973 18.6051C61.4248 19.1346 62.14 19.432 62.8857 19.4318H64.0648" stroke="black" stroke-width="1.03088" stroke-linecap="round" stroke-linejoin="round"/>
<path d="M22.7156 21.6205C22.3579 21.6218 22.0034 21.5519 21.6727 21.4147C21.342 21.2776 21.0416 21.076 20.7889 20.8216L18.0059 18.0238C17.9075 17.9292 17.7765 17.8765 17.6403 17.8765C17.5041 17.8765 17.3732 17.9292 17.2747 18.0238L14.4823 20.8292C14.2297 21.0841 13.9294 21.2861 13.5988 21.4236C13.2681 21.5611 12.9135 21.6315 12.5556 21.6305H12.0107L15.5373 25.1735C16.0662 25.7037 16.7829 26.0015 17.5301 26.0015C18.2773 26.0015 18.994 25.7037 19.5229 25.1735L23.0565 21.6229L22.7156 21.6205Z" fill="#32BCAD"/>
<path d="M12.5562 11.7333C12.9141 11.7323 13.2687 11.8026 13.5994 11.9402C13.9301 12.0777 14.2303 12.2797 14.4829 12.5346L17.2753 15.3406C17.3724 15.4378 17.5038 15.4924 17.6409 15.4924C17.7779 15.4924 17.9094 15.4378 18.0065 15.3406L20.7889 12.5452C21.0412 12.29 21.3415 12.0878 21.6722 11.9501C22.003 11.8125 22.3576 11.7422 22.7156 11.7433H23.0506L19.517 8.19327C19.2554 7.93029 18.9447 7.72168 18.6028 7.57935C18.2608 7.43703 17.8943 7.36377 17.5242 7.36377C17.1541 7.36377 16.7876 7.43703 16.4457 7.57935C16.1038 7.72168 15.7931 7.93029 15.5314 8.19327L12.0107 11.7333H12.5562Z" fill="#32BCAD"/>
<path d="M25.9729 14.6801L23.8376 12.5348C23.7894 12.5546 23.7379 12.565 23.6859 12.5655H22.7149C22.2097 12.5668 21.7253 12.7684 21.3672 13.1265L18.5848 15.9201C18.3342 16.1714 17.9946 16.3126 17.6405 16.3126C17.2865 16.3126 16.9469 16.1714 16.6963 15.9201L13.9032 13.1159C13.5452 12.7576 13.0609 12.5558 12.5555 12.5543H11.3635C11.3144 12.5532 11.2659 12.5434 11.2201 12.5254L9.07127 14.6801C8.54348 15.2115 8.24707 15.9315 8.24707 16.6822C8.24707 17.4328 8.54348 18.1529 9.07127 18.6842L11.2154 20.8384C11.2611 20.82 11.3097 20.8102 11.3588 20.8094H12.5555C13.0609 20.8079 13.5452 20.6061 13.9032 20.2479L16.6957 17.4424C17.2006 16.9358 18.0805 16.9358 18.5848 17.4424L21.3672 20.2372C21.7253 20.5953 22.2097 20.7969 22.7149 20.7982H23.6859C23.738 20.7986 23.7894 20.809 23.8376 20.8289L25.9729 18.6836C26.2347 18.4208 26.4423 18.1086 26.584 17.7651C26.7256 17.4216 26.7986 17.0534 26.7986 16.6816C26.7986 16.3097 26.7256 15.9415 26.584 15.598C26.4423 15.2545 26.2347 14.9424 25.9729 14.6795" fill="#32BCAD"/>
<path d="M34.2592 23.7002C34.0827 23.7079 33.9075 23.7346 33.7367 23.7799V24.479C33.8674 24.525 34.0049 24.5482 34.1434 24.5475C34.4926 24.5475 34.6577 24.4294 34.6577 24.1206C34.6577 23.8301 34.5225 23.7002 34.2592 23.7002ZM33.6191 24.9992V23.6157H33.7149L33.7249 23.6748C33.903 23.6272 34.0853 23.5977 34.2692 23.5868C34.3966 23.5778 34.5231 23.6146 34.626 23.6907C34.7435 23.7887 34.7835 23.947 34.7835 24.1194C34.7835 24.2918 34.7247 24.4702 34.5601 24.564C34.4345 24.627 34.2955 24.658 34.1552 24.6544C34.0133 24.6535 33.8723 24.6318 33.7367 24.59V24.9969L33.6191 24.9992Z" fill="black"/>
<path d="M35.6594 23.6964C35.3108 23.6964 35.1551 23.8063 35.1551 24.1151C35.1551 24.4133 35.3085 24.5479 35.6594 24.5479C36.0103 24.5479 36.1619 24.4393 36.1619 24.131C36.1619 23.8328 36.0085 23.6964 35.6594 23.6964ZM36.1084 24.5479C35.9909 24.6318 35.8369 24.656 35.6594 24.656C35.4819 24.656 35.3226 24.63 35.2092 24.5479C35.0816 24.4576 35.0293 24.3117 35.0293 24.1234C35.0293 23.935 35.0816 23.7886 35.2092 23.6964C35.3226 23.6144 35.4783 23.5884 35.6594 23.5884C35.8404 23.5884 35.9926 23.6144 36.1084 23.6964C36.2377 23.7886 36.2877 23.9385 36.2877 24.121C36.2877 24.3035 36.236 24.4576 36.1084 24.5479Z" fill="black"/>
<path d="M37.7589 24.6272L37.3698 23.7881H37.3622L36.979 24.6272H36.8714L36.46 23.6157H36.5893L36.9343 24.4649H36.9425L37.3175 23.6157H37.4251L37.8095 24.4649H37.8177L38.1545 23.6157H38.282L37.8671 24.6272H37.7589Z" fill="black"/>
<path d="M39.0332 23.6939C38.71 23.6939 38.6007 23.8386 38.5807 24.0482H39.4858C39.4758 23.8179 39.3583 23.6939 39.0332 23.6939ZM39.0291 24.6558C38.8358 24.6558 38.71 24.6275 38.6101 24.5436C38.4925 24.4415 38.4531 24.2933 38.4531 24.1232C38.4531 23.9531 38.5066 23.7884 38.6406 23.6904C38.7578 23.6163 38.895 23.5806 39.0332 23.5882C39.1742 23.5797 39.3144 23.6138 39.4359 23.6862C39.581 23.7842 39.6092 23.9567 39.6092 24.1527H38.5777C38.5818 24.3612 38.6494 24.5454 39.0403 24.5454C39.2151 24.5408 39.3891 24.521 39.5605 24.4863V24.5926C39.3863 24.6286 39.2093 24.6494 39.0315 24.6546" fill="black"/>
<path d="M39.9453 24.6274V23.6158H40.0405L40.0505 23.6749C40.2639 23.6206 40.3638 23.5869 40.5513 23.5869H40.5654V23.6991H40.5372C40.3797 23.6991 40.2839 23.721 40.0629 23.7788V24.6262L39.9453 24.6274Z" fill="black"/>
<path d="M41.2491 23.6939C40.9264 23.6939 40.8165 23.8386 40.7965 24.0482H41.7016C41.6916 23.8179 41.5741 23.6939 41.2491 23.6939ZM41.245 24.6558C41.0516 24.6558 40.9264 24.6275 40.8265 24.5436C40.7089 24.4415 40.6689 24.2933 40.6689 24.1232C40.6689 23.9531 40.723 23.7884 40.8564 23.6904C40.9737 23.6164 41.1108 23.5808 41.2491 23.5882C41.39 23.5797 41.5303 23.6138 41.6517 23.6862C41.7974 23.7842 41.828 23.9567 41.828 24.1527H40.7924C40.7965 24.3612 40.8641 24.5454 41.2549 24.5454C41.4299 24.5408 41.6041 24.521 41.7757 24.4863V24.5926C41.6015 24.6286 41.4245 24.6493 41.2467 24.6546" fill="black"/>
<path d="M43.1142 23.764C42.9835 23.7182 42.8459 23.6952 42.7075 23.6961C42.3583 23.6961 42.1932 23.8142 42.1932 24.123C42.1932 24.4153 42.3289 24.5435 42.5917 24.5435C42.768 24.5352 42.9431 24.5089 43.1142 24.4649V23.764ZM43.1365 24.6273L43.1259 24.5683C42.948 24.6163 42.7656 24.646 42.5817 24.6568C42.4541 24.6665 42.3273 24.6294 42.2249 24.5523C42.1074 24.4543 42.0674 24.296 42.0674 24.1242C42.0674 23.9435 42.1262 23.7734 42.2907 23.6813C42.4165 23.6169 42.5563 23.5852 42.6975 23.5892C42.8386 23.5912 42.9788 23.6126 43.1142 23.653V23.1895H43.2317V24.6273H43.1365Z" fill="black"/>
<path d="M44.9565 23.7002C44.78 23.708 44.6048 23.7347 44.434 23.7799V24.4773C44.5643 24.5247 44.7021 24.5484 44.8407 24.5476C45.1898 24.5476 45.355 24.4295 45.355 24.1207C45.355 23.8301 45.2198 23.7002 44.9565 23.7002ZM45.2574 24.5653C45.132 24.6282 44.9932 24.6592 44.853 24.6556C44.6997 24.6547 44.5475 24.629 44.4022 24.5795L44.3963 24.6273H44.3164V23.1895H44.434V23.6719C44.6084 23.627 44.7867 23.599 44.9665 23.588C45.0939 23.5791 45.2204 23.6159 45.3232 23.692C45.4408 23.79 45.4808 23.9482 45.4808 24.1207C45.4808 24.2931 45.422 24.4714 45.2574 24.5653Z" fill="black"/>
<path d="M45.6378 25.0143V24.9045C45.6966 24.9104 45.7495 24.9145 45.7871 24.9145C45.9328 24.9145 46.0222 24.872 46.1021 24.7061L46.1403 24.6258L45.6113 23.6143H45.7477L46.1985 24.4876H46.2061L46.6346 23.6143H46.7686L46.202 24.7504C46.0986 24.9564 45.9869 25.0244 45.7812 25.0244C45.7326 25.0241 45.6841 25.0208 45.636 25.0143" fill="black"/>
<path d="M48.3904 24.0502H48.0002V24.4045H48.3904C48.6596 24.4045 48.7613 24.3744 48.7613 24.2273C48.7613 24.0691 48.6214 24.0502 48.3881 24.0502M48.3176 23.4786H47.999V23.8388H48.3199C48.585 23.8388 48.6908 23.8069 48.6908 23.6569C48.6908 23.4963 48.5568 23.4798 48.3176 23.4798M48.9241 24.5356C48.7801 24.6277 48.6067 24.6312 48.2899 24.6312H47.6934V23.2554H48.2758C48.5491 23.2554 48.7166 23.2589 48.8559 23.3434C48.9022 23.3711 48.9399 23.4113 48.9646 23.4594C48.9893 23.5075 49.0001 23.5616 48.9958 23.6156C48.9958 23.7597 48.9371 23.8559 48.7801 23.9203V23.9279C48.9565 23.9681 49.0693 24.0584 49.0693 24.2527C49.0737 24.3082 49.0624 24.3638 49.0367 24.4131C49.0111 24.4624 48.972 24.5034 48.9241 24.5314" fill="black"/>
<path d="M50.2623 24.2029C50.1448 24.1928 50.0272 24.1869 49.8997 24.1869C49.6945 24.1869 49.6222 24.2289 49.6222 24.3233C49.6222 24.4178 49.681 24.4592 49.8397 24.4592C49.9822 24.4544 50.1239 24.4347 50.2623 24.4001V24.2029ZM50.3211 24.6274L50.3134 24.5684C50.1352 24.6189 49.9518 24.6486 49.7668 24.657C49.6599 24.6642 49.5534 24.6382 49.4618 24.5826C49.4224 24.5493 49.3918 24.5068 49.3727 24.4588C49.3537 24.4108 49.3468 24.3588 49.3526 24.3075C49.3584 24.2561 49.3768 24.207 49.4061 24.1646C49.4354 24.1221 49.4747 24.0876 49.5205 24.0641C49.6263 24.0139 49.768 24.0098 49.8979 24.0098C50.0031 24.0098 50.1448 24.0157 50.2623 24.024V24.0057C50.2623 23.8474 50.1589 23.7954 49.8756 23.7954C49.7662 23.7954 49.6322 23.8013 49.5047 23.8132V23.6088C49.6463 23.597 49.8062 23.5894 49.9379 23.5894C50.1142 23.5894 50.2946 23.6029 50.4081 23.6832C50.5215 23.7636 50.5456 23.8799 50.5456 24.0299V24.6286L50.3211 24.6274Z" fill="black"/>
<path d="M51.8586 24.6273V24.0693C51.8586 23.885 51.7652 23.8189 51.5977 23.8189C51.4586 23.8251 51.3207 23.8465 51.1862 23.8827V24.6279H50.9053V23.6158H51.1345L51.1445 23.6801C51.3197 23.6283 51.5004 23.5974 51.6829 23.588C51.8068 23.5781 51.9299 23.6151 52.0279 23.6919C52.1072 23.764 52.1372 23.8644 52.1372 24.0084V24.6273H51.8586Z" fill="black"/>
<path d="M52.9327 24.656C52.8028 24.656 52.6612 24.6377 52.5577 24.5497C52.4343 24.4493 52.3984 24.2917 52.3984 24.121C52.3984 23.961 52.4502 23.7862 52.6036 23.6882C52.7293 23.6061 52.8845 23.5884 53.0461 23.5884C53.1637 23.5884 53.2754 23.5961 53.3988 23.6079V23.8246C53.2971 23.8145 53.1755 23.8069 53.0779 23.8069C52.8105 23.8069 52.6847 23.8907 52.6847 24.1234C52.6847 24.3413 52.7787 24.4357 52.998 24.4357C53.1401 24.4311 53.2815 24.4137 53.4206 24.3838V24.5916C53.2597 24.6293 53.0955 24.6508 52.9304 24.656" fill="black"/>
<path d="M54.2542 23.8004C53.9868 23.8004 53.8693 23.8848 53.8693 24.1151C53.8693 24.3454 53.9868 24.4434 54.2542 24.4434C54.5217 24.4434 54.6351 24.3613 54.6351 24.131C54.6351 23.9007 54.5217 23.8004 54.2542 23.8004ZM54.7368 24.5497C54.6134 24.6336 54.4517 24.656 54.2542 24.656C54.0567 24.656 53.8916 24.6318 53.7699 24.5497C53.63 24.4576 53.5801 24.3052 53.5801 24.1234C53.5801 23.9415 53.63 23.7862 53.7699 23.6941C53.8916 23.612 54.0526 23.5884 54.2542 23.5884C54.4558 23.5884 54.6134 23.612 54.7368 23.6941C54.8761 23.7862 54.9243 23.9409 54.9243 24.121C54.9243 24.3011 54.8743 24.4576 54.7368 24.5497Z" fill="black"/>
<path d="M56.5463 24.6555C56.377 24.6555 56.1937 24.6271 56.0561 24.5131C55.8927 24.3767 55.8428 24.1665 55.8428 23.9404C55.8428 23.7378 55.9068 23.4975 56.1196 23.3576C56.2854 23.2495 56.4905 23.2271 56.698 23.2271C56.8496 23.2271 57.0054 23.2371 57.1746 23.2513V23.4975C57.0295 23.4857 56.8496 23.4756 56.7103 23.4756C56.3212 23.4756 56.156 23.6239 56.156 23.9404C56.156 24.2569 56.3095 24.4069 56.5963 24.4069C56.8013 24.3997 57.005 24.3722 57.2046 24.3248V24.5692C56.9885 24.6194 56.768 24.6483 56.5463 24.6555Z" fill="black"/>
<path d="M58.0311 23.7678C57.796 23.7678 57.7078 23.8522 57.6896 24.004H58.3678C58.3596 23.8398 58.2638 23.7678 58.0311 23.7678ZM57.9887 24.6535C57.8236 24.6535 57.6737 24.6335 57.562 24.5414C57.4504 24.4492 57.4004 24.291 57.4004 24.1186C57.4004 23.9644 57.4503 23.792 57.5902 23.6916C57.7137 23.6037 57.8712 23.5859 58.0311 23.5859C58.1745 23.5859 58.3437 23.6019 58.4672 23.6881C58.6288 23.8021 58.6435 23.9786 58.6435 24.1865H57.6878C57.6937 24.3412 57.7754 24.441 58.0587 24.441C58.2386 24.437 58.418 24.4197 58.5953 24.389V24.5874C58.3952 24.6256 58.1924 24.6477 57.9887 24.6535Z" fill="black"/>
<path d="M59.8948 24.6273V24.0693C59.8948 23.885 59.8013 23.8189 59.6338 23.8189C59.4947 23.8251 59.3568 23.8465 59.2224 23.8827V24.6279H58.9414V23.6158H59.1706L59.1806 23.6801C59.3559 23.6283 59.5366 23.5974 59.719 23.588C59.8429 23.5781 59.966 23.6151 60.064 23.6919C60.1434 23.764 60.1734 23.8644 60.1734 24.0084V24.6273H59.8948Z" fill="black"/>
<path d="M60.9743 24.6554C60.8386 24.6554 60.7151 24.617 60.6475 24.5107C60.5921 24.4188 60.5663 24.312 60.5735 24.2049V23.8258H60.3701V23.6155H60.5735L60.6035 23.3091H60.8515V23.6155H61.2482V23.8258H60.8515V24.1505C60.8477 24.2159 60.8571 24.2814 60.8791 24.343C60.9091 24.4109 60.9749 24.4369 61.0631 24.4369C61.1305 24.4357 61.1977 24.429 61.2641 24.4168V24.6194C61.1684 24.6402 61.071 24.6523 60.9732 24.6554" fill="black"/>
<path d="M61.5244 24.6272V23.6157H61.7536L61.7636 23.68C61.9244 23.6252 62.0923 23.5942 62.2621 23.5879C62.274 23.5872 62.286 23.5872 62.2979 23.5879V23.833C62.2662 23.833 62.228 23.833 62.2003 23.833C62.067 23.8335 61.9343 23.851 61.8054 23.8849V24.6319L61.5244 24.6272Z" fill="black"/>
<path d="M63.3215 24.2029C63.2039 24.1928 63.0863 24.1869 62.9582 24.1869C62.7531 24.1869 62.6814 24.2289 62.6814 24.3233C62.6814 24.4178 62.7402 24.4592 62.8983 24.4592C63.041 24.4544 63.1828 24.4347 63.3215 24.4001V24.2029ZM63.3802 24.6274L63.372 24.5684C63.1938 24.6189 63.0104 24.6486 62.8254 24.657C62.7185 24.6642 62.612 24.6382 62.5203 24.5826C62.4833 24.554 62.4538 24.5169 62.4343 24.4743C62.4148 24.4317 62.406 24.3849 62.4087 24.3381C62.4059 24.2805 62.4207 24.2234 62.4511 24.1745C62.4814 24.1256 62.5259 24.0871 62.5785 24.0641C62.6843 24.0139 62.8254 24.0098 62.9553 24.0098C63.0611 24.0098 63.2027 24.0157 63.3203 24.024V24.0057C63.3203 23.8474 63.2162 23.7954 62.9335 23.7954C62.8236 23.7954 62.6902 23.8013 62.5627 23.8132V23.6088C62.7043 23.597 62.8636 23.5894 62.9952 23.5894C63.1716 23.5894 63.352 23.6029 63.4655 23.6832C63.5789 23.7636 63.603 23.8799 63.603 24.0299V24.6286L63.3802 24.6274Z" fill="black"/>
<path d="M63.9619 23.1895H64.2435V24.6273H63.9619V23.1895Z" fill="black"/>
</g>
<defs>
<clipPath id="clip0_18382_14022">
<rect width="56" height="20" fill="white" transform="translate(8.24707 6)"/>
</clipPath>
</defs>
</svg>
