<svg width="67" height="33" viewBox="0 0 67 33" fill="none" xmlns="http://www.w3.org/2000/svg">
<path d="M29.5499 24.2445H25.7021L28.1088 9.72412H31.9563L29.5499 24.2445Z" fill="#1633CA"/>
<path d="M43.4972 10.0791C42.7382 9.78533 41.5345 9.46094 40.0461 9.46094C36.2463 9.46094 33.5706 11.4381 33.5542 14.2648C33.5226 16.3503 35.4699 17.5087 36.9264 18.2041C38.415 18.9147 38.921 19.3785 38.921 20.0119C38.9059 20.9846 37.7181 21.433 36.6103 21.433C35.0742 21.433 34.251 21.2018 33.0002 20.6606L32.4935 20.4286L31.9551 23.6881C32.8575 24.0893 34.5201 24.4453 36.2463 24.4609C40.2836 24.4609 42.912 22.5144 42.9432 19.5021C42.9585 17.8491 41.9303 16.5825 39.7134 15.5476C38.3677 14.8832 37.5435 14.4352 37.5435 13.7554C37.5593 13.1374 38.2406 12.5045 39.7597 12.5045C41.0106 12.4735 41.9296 12.7669 42.6259 13.0604L42.9739 13.2146L43.4972 10.0791V10.0791Z" fill="#1633CA"/>
<path d="M48.6122 19.1005C48.9291 18.2663 50.1484 15.0378 50.1484 15.0378C50.1324 15.0688 50.4646 14.1882 50.6546 13.6476L50.9235 14.8988C50.9235 14.8988 51.6522 18.3745 51.8104 19.1005C51.2091 19.1005 49.3722 19.1005 48.6122 19.1005ZM53.3617 9.72412H50.3855C49.4677 9.72412 48.7704 9.98651 48.3745 10.9289L42.6592 24.2443H46.6965C46.6965 24.2443 47.3611 22.4522 47.504 22.0662C47.9469 22.0662 51.8744 22.0662 52.4441 22.0662C52.5546 22.576 52.9033 24.2443 52.9033 24.2443H56.4659L53.3617 9.72412V9.72412Z" fill="#1633CA"/>
<path d="M22.4879 9.72412L18.7198 19.6256L18.308 17.6175C17.6113 15.3004 15.4265 12.7828 12.9883 11.5311L16.4398 24.2291H20.5086L26.5566 9.72412H22.4879V9.72412Z" fill="#1633CA"/>
<path d="M15.2207 9.72607H9.03013L8.9668 10.0195C13.7958 11.2244 16.994 14.129 18.308 17.6201L16.9623 10.9466C16.7407 10.0193 16.0598 9.75667 15.2207 9.72607Z" fill="#1633CA"/>
</svg>
